<svg width="37" height="34" viewBox="0 0 37 34" fill="none" xmlns="http://www.w3.org/2000/svg">
<rect width="37" height="34" fill="#1E1E1E"/>
<g clip-path="url(#clip0_0_1)">
<rect width="360" height="3854" transform="translate(-248 -404)" fill="white"/>
<path d="M575.976 159.366C294.008 42.4855 120.928 -89.1086 -11.6109 -48.684C-9.32881 13.4792 287.124 155.556 475.809 231.322C545.359 308.779 860.322 277.232 575.976 159.366Z" fill="#A4A4A4"/>
<g filter="url(#filter0_b_0_1)">
<rect x="-661" y="-407" width="1185.3" height="646.151" fill="url(#paint0_linear_0_1)"/>
</g>
<g clip-path="url(#clip1_0_1)">
<path d="M29.6799 28.1385L20.2966 8.3324L29.6799 28.1385ZM29.6799 28.1385H25.5891L22.8168 21.9314H14.1265L15.6791 18.6643H21.3587L18.4649 12.1875L20.2966 8.3324" stroke="#1A1A18" stroke-width="0.506177" stroke-miterlimit="22.93"/>
<path d="M19.3195 0.0430584L18.303 2.15536M18.303 2.15536L15.6314 7.70679M18.303 2.15536L17.2809 0.00769043M18.303 2.15536L20.2701 6.28838M15.6314 7.70679L5.92627 27.8733M15.6314 7.70679L13.082 2.16514M15.6314 7.70679L17.671 12.1402M21.9973 2.39945L20.2701 6.28838M20.2701 6.28838L17.671 12.1402M20.2701 6.28838L25.8362 17.9835M17.671 12.1402L10.6832 27.8733M17.671 12.1402L20.3591 17.9835" stroke="black" stroke-width="0.444015" stroke-miterlimit="10"/>
<path fill-rule="evenodd" clip-rule="evenodd" d="M4.23697 30.7289C4.36673 30.8593 4.46949 31.0096 4.546 31.1795C4.6225 31.3493 4.66076 31.5302 4.66076 31.7229V33.7109H4.11245V32.2372H0.743134V33.7109H0.199707V31.7229C0.199707 31.5269 0.237961 31.3442 0.314468 31.1747C0.390975 31.0048 0.493735 30.8564 0.623497 30.7293C0.75326 30.6018 0.904399 30.5016 1.07692 30.4283C1.24981 30.355 1.43395 30.3181 1.63009 30.3181H3.22512C3.42126 30.3181 3.60541 30.355 3.7783 30.4283C3.95119 30.5016 4.10383 30.6022 4.23697 30.7293V30.7289ZM1.62034 30.8512C1.50408 30.8512 1.39345 30.8741 1.28881 30.9197C1.18418 30.9654 1.09192 31.0266 1.01203 31.1032C0.932152 31.1798 0.868396 31.2697 0.820016 31.3725C0.772012 31.4753 0.746134 31.584 0.742759 31.6982H4.11208C4.1087 31.584 4.08283 31.4753 4.03482 31.3725C3.98682 31.2697 3.92269 31.1798 3.8428 31.1032C3.76292 31.0266 3.66991 30.9654 3.56378 30.9197C3.45727 30.8741 3.34438 30.8512 3.22475 30.8512H1.61997H1.62034Z" fill="black"/>
<path fill-rule="evenodd" clip-rule="evenodd" d="M7.95602 30.3177V32.2958C7.95602 32.4199 7.97927 32.5341 8.02577 32.6384C8.07228 32.743 8.13528 32.8344 8.21517 32.9125C8.29505 32.991 8.38806 33.0536 8.49419 33.1011C8.6007 33.1483 8.71696 33.1722 8.84298 33.1722H11.6887V33.7109H8.84298C8.64346 33.7109 8.45744 33.674 8.28492 33.6007C8.11203 33.5274 7.95939 33.4253 7.82625 33.2946C7.69649 33.1671 7.59448 33.0179 7.51985 32.8466C7.44522 32.6752 7.40771 32.4914 7.40771 32.2958V30.3177H7.95602Z" fill="black"/>
<path fill-rule="evenodd" clip-rule="evenodd" d="M14.9824 33.711H14.439V30.3226H17.893C18.0393 30.3226 18.1788 30.3503 18.3116 30.4059C18.4443 30.4615 18.5606 30.5374 18.6604 30.6336C18.7601 30.7297 18.8396 30.8417 18.8996 30.9688C18.9593 31.0963 18.9893 31.2315 18.9893 31.3752C18.9893 31.5189 18.9585 31.6592 18.897 31.7864C18.8355 31.9138 18.7534 32.0255 18.6502 32.1216C18.5471 32.2178 18.4275 32.2929 18.2913 32.3467C18.1552 32.4005 18.0138 32.4274 17.8675 32.4274H14.9816V33.7102L14.9824 33.711ZM17.878 31.9042C17.9545 31.9042 18.0266 31.8902 18.0948 31.8626C18.1631 31.835 18.2227 31.7974 18.2741 31.7499C18.3255 31.7027 18.3678 31.6471 18.4012 31.5834C18.4346 31.5196 18.4526 31.4504 18.456 31.3752C18.4526 31.3034 18.4342 31.2356 18.4012 31.1718C18.3678 31.1081 18.3247 31.0528 18.2715 31.0053C18.2182 30.9578 18.1567 30.9206 18.0869 30.8926C18.0172 30.8649 17.944 30.8509 17.8675 30.8509H14.9816V31.9035H17.8773L17.878 31.9042Z" fill="black"/>
<path d="M22.3203 30.3177H21.772V33.7109H22.3203V30.3177Z" fill="black"/>
<path fill-rule="evenodd" clip-rule="evenodd" d="M28.4084 33.6715C28.3619 33.6519 28.3187 33.6273 28.2786 33.5982C28.2385 33.569 28.1972 33.5296 28.1541 33.4806C27.9778 33.2817 27.7944 33.0709 27.6032 32.8492C27.4123 32.6274 27.2195 32.4037 27.0249 32.1783C26.8306 31.9532 26.6378 31.7303 26.4465 31.51C26.2557 31.2897 26.0734 31.0782 25.9009 30.8759C25.8611 30.8369 25.8112 30.8173 25.7512 30.8173C25.698 30.8173 25.6507 30.8302 25.6091 30.8564C25.5675 30.8826 25.545 30.9234 25.542 30.9787V33.7109H24.9985V30.9397L25.0034 30.9249C25.0102 30.8236 25.0357 30.7322 25.0807 30.6508C25.1257 30.569 25.1838 30.5005 25.2551 30.4452C25.3263 30.3896 25.4062 30.3472 25.4943 30.3178C25.5825 30.2883 25.6713 30.2736 25.761 30.2736C25.8675 30.2736 25.9695 30.2938 26.0674 30.3347C26.1653 30.3756 26.2512 30.4434 26.3239 30.5381C26.6993 30.9721 27.0732 31.4046 27.4453 31.8356C27.8173 32.2663 28.1927 32.7007 28.5715 33.138C28.588 33.1542 28.6105 33.1689 28.6386 33.1822C28.6668 33.1951 28.6941 33.2017 28.7208 33.2017C28.7673 33.2017 28.8104 33.187 28.8505 33.1575C28.8903 33.1281 28.9154 33.089 28.9252 33.04V30.3078H29.4735V33.0791C29.4633 33.1804 29.4352 33.2717 29.3887 33.3532C29.3422 33.4349 29.2848 33.5049 29.2169 33.5635C29.1487 33.6221 29.0714 33.667 28.9852 33.698C28.8989 33.7289 28.8089 33.7444 28.7159 33.7444C28.666 33.7444 28.6139 33.7389 28.5587 33.7271C28.5036 33.7153 28.4534 33.6969 28.4069 33.6707L28.4084 33.6715Z" fill="black"/>
<path fill-rule="evenodd" clip-rule="evenodd" d="M33.1283 31.1058C33.0484 31.1876 32.9854 31.2804 32.9389 31.3851C32.8924 31.4897 32.8691 31.6021 32.8691 31.7229V31.7472H36.6071V32.2858H32.8691V32.3101C32.8691 32.4277 32.8924 32.5386 32.9389 32.6432C32.9854 32.7478 33.0495 32.8392 33.1309 32.9173C33.2123 32.9958 33.3071 33.0577 33.4148 33.1033C33.5228 33.149 33.6364 33.1719 33.7561 33.1719H36.6071V33.7105H33.7561C33.5565 33.7105 33.3698 33.6729 33.1954 33.5978C33.021 33.5226 32.8691 33.4217 32.7393 33.2942C32.6096 33.1667 32.5076 33.0175 32.4329 32.8462C32.3583 32.6749 32.3208 32.4929 32.3208 32.3002V31.7225C32.3208 31.5265 32.3591 31.3438 32.4356 31.1743C32.5121 31.0045 32.6148 30.856 32.7446 30.7289C32.8744 30.6014 33.0262 30.5012 33.2006 30.4279C33.375 30.3546 33.5603 30.3177 33.7564 30.3177H36.6075V30.8516H33.7564C33.63 30.8516 33.5138 30.8744 33.4077 30.9201C33.3011 30.9658 33.2081 31.0277 33.1286 31.1062L33.1283 31.1058Z" fill="black"/>
<path fill-rule="evenodd" clip-rule="evenodd" d="M14.1265 21.9314H22.8168L25.5891 28.1385H29.6799L20.2966 8.3324L18.4649 12.1875L21.3587 18.6643H15.6791L14.1265 21.9314Z" fill="black"/>
</g>
</g>
<defs>
<filter id="filter0_b_0_1" x="-728.01" y="-474.01" width="1319.32" height="780.171" filterUnits="userSpaceOnUse" color-interpolation-filters="sRGB">
<feFlood flood-opacity="0" result="BackgroundImageFix"/>
<feGaussianBlur in="BackgroundImageFix" stdDeviation="33.505"/>
<feComposite in2="SourceAlpha" operator="in" result="effect1_backgroundBlur_0_1"/>
<feBlend mode="normal" in="SourceGraphic" in2="effect1_backgroundBlur_0_1" result="shape"/>
</filter>
<linearGradient id="paint0_linear_0_1" x1="-661" y1="-407" x2="504.619" y2="272.886" gradientUnits="userSpaceOnUse">
<stop stop-color="white" stop-opacity="0.16"/>
<stop offset="1" stop-color="white" stop-opacity="0.08"/>
</linearGradient>
<clipPath id="clip0_0_1">
<rect width="360" height="3854" fill="white" transform="translate(-248 -404)"/>
</clipPath>
<clipPath id="clip1_0_1">
<rect width="36.4092" height="33.7451" fill="white" transform="translate(0.197754)"/>
</clipPath>
</defs>
</svg>
