<svg width="49" height="26" viewBox="0 0 49 26" fill="none" xmlns="http://www.w3.org/2000/svg">
<path d="M28.3114 8.96938C27.9821 8.96938 27.6784 9.02723 27.1573 8.45517L25.3607 6.26334C25.172 6.02231 24.9195 5.80055 24.5614 5.6495C28.0492 4.75606 27.4099 0.619873 24.0435 0.619873H22.3428L20.5845 2.38426H23.1676C25.252 2.38426 25.7443 4.51181 24.4463 5.60451C24.181 5.51131 23.8613 5.45346 23.4745 5.45346H22.3268L20.5877 7.20178H21.7418C22.5634 7.20178 23.4937 7.26927 24.0371 7.96024C24.1043 8.0438 25.6548 9.99781 25.7411 10.1167C26.5723 11.2641 27.4802 10.8591 27.4802 10.8591L28.3114 8.96938Z" fill="#013A98"/>
<path d="M25.6354 13.469L24.1105 13.5783V14.3624L24.5612 14.4074V18.3154L24.2032 18.3926V19.1928H25.9519V18.3926L25.6002 18.3154V16.2393C25.8208 16.1075 26.0734 16.0401 26.3259 16.0401C26.7319 16.0401 26.8214 16.2232 26.8214 16.4932V18.3154L26.4921 18.3926V19.1928H28.1961V18.3926L27.8508 18.3154V16.3389C27.8508 15.4937 27.4224 15.1016 26.7447 15.1016C26.2939 15.1016 25.9966 15.2398 25.6514 15.5548H25.597V14.4171L25.6354 13.4722V13.469ZM4.62851 15.6126C4.62851 16.1847 4.33439 16.4064 3.85485 16.4064H3.35933V14.9056C3.52238 14.8991 3.75255 14.8991 3.87723 14.8991C4.38874 14.8991 4.62851 15.1113 4.62851 15.6158M4.82671 19.196H6.09269V18.3187C5.82415 18.2994 5.67709 18.2801 5.67709 18.2801L4.945 16.8917C5.4565 16.67 5.78259 16.175 5.78259 15.5869C5.78259 14.5103 5.1496 14.025 3.81649 14.025C3.23465 14.025 1.7417 14.0636 1.7417 14.0636V14.9088L2.24361 14.9859V18.2801L1.7417 18.3572V19.1992H3.73977V18.3572L3.35933 18.2801V17.2356H3.8037C3.8037 17.2356 4.77876 19.106 4.82991 19.1992M8.80047 16.5896C8.80047 16.6507 8.80047 16.7375 8.79088 16.7985H7.61442C7.62081 16.1108 7.86058 15.8537 8.23142 15.8537C8.60226 15.8537 8.80047 16.0786 8.80047 16.5896ZM9.81709 17.4959C9.83946 17.287 9.84905 16.9946 9.84905 16.8146C9.84905 15.7476 9.34714 15.0888 8.24101 15.0888C7.24677 15.0888 6.47632 15.7604 6.47632 17.2227C6.47632 18.5918 7.18603 19.2796 8.4552 19.2796C8.82604 19.2796 9.34714 19.196 9.79471 18.9775L9.56453 18.0326C9.1809 18.2255 8.81006 18.3122 8.47119 18.3122C7.84779 18.3122 7.60802 18.1033 7.60802 17.5216V17.4895H9.81709V17.4959ZM11.9878 14.1246C11.9878 13.8225 11.8024 13.5333 11.4059 13.5333C11.0095 13.5333 10.8177 13.8257 10.8177 14.1246C10.8177 14.4235 11.0095 14.6999 11.3996 14.6999C11.7896 14.6999 11.9878 14.4396 11.9878 14.1246ZM10.4277 19.1992H12.4098V18.399L11.9366 18.3219V16.0915L11.9686 15.1466L10.4149 15.2527V16.0368L10.8976 16.0818V18.3187L10.4309 18.3958V19.196L10.4277 19.1992ZM15.3381 14.3496V13.5043C15.3381 13.5043 14.6412 13.4851 14.2864 13.5397C13.7077 13.6265 13.4584 14.0636 13.4424 14.4749C13.436 14.6453 13.436 14.7192 13.436 14.8766V15.1852H12.8382V16.0786H13.436V18.3251L12.9884 18.4022V19.2025H15.0216V18.4022L14.475 18.3251V16.0786H15.2902V15.1852H14.475V14.8027C14.475 14.581 14.491 14.4717 14.6604 14.4106C14.9034 14.3432 15.3349 14.3528 15.3349 14.3528M17.966 16.5928C17.966 16.6539 17.966 16.7407 17.9596 16.8017H16.7831C16.7895 16.114 17.0293 15.8569 17.4001 15.8569C17.771 15.8569 17.9692 16.0818 17.9692 16.5928M18.9858 17.4991C19.0082 17.2902 19.0178 16.9978 19.0178 16.8178C19.0178 15.7508 18.5191 15.092 17.4097 15.092C16.4155 15.092 15.6482 15.7637 15.6482 17.226C15.6482 18.595 16.3548 19.2828 17.6271 19.2828C17.998 19.2828 18.5191 19.1992 18.9666 18.9807L18.7365 18.0358C18.3528 18.2287 17.982 18.3154 17.6431 18.3154C17.0197 18.3154 16.7799 18.1065 16.7799 17.5248V17.4927H18.989L18.9858 17.4991ZM21.1054 15.1498L19.59 15.2559V16.0401L20.0728 16.085V18.3219L19.606 18.399V19.1992H21.4666V18.399L21.115 18.3219V16.2457C21.3355 16.114 21.5817 16.0465 21.8343 16.0465C22.2179 16.0465 22.3394 16.2007 22.3394 16.4996V18.3219L22.0037 18.399V19.1992H23.6981V18.399L23.3816 18.3219V16.3454C23.3816 15.4391 22.8828 15.108 22.2626 15.108C21.8726 15.108 21.5369 15.2077 21.1469 15.5837H21.0862L21.1086 15.1466L21.1054 15.1498ZM30.0247 14.205C30.0247 13.8964 29.8489 13.6393 29.4781 13.6393C29.1072 13.6393 28.925 13.9029 28.925 14.205C28.925 14.5071 29.1008 14.7545 29.4717 14.7545C29.8425 14.7545 30.0247 14.5135 30.0247 14.205ZM31.6008 14.205C31.6008 13.8964 31.425 13.6393 31.0541 13.6393C30.6833 13.6393 30.5011 13.9029 30.5011 14.205C30.5011 14.5071 30.6769 14.7545 31.0477 14.7545C31.4186 14.7545 31.6008 14.5135 31.6008 14.205ZM30.7185 18.0712C30.5906 18.1869 30.3924 18.3829 30.0983 18.4279C29.8361 18.4665 29.6731 18.3476 29.6667 18.0423C29.6571 17.6791 29.8457 17.4798 30.1494 17.4381C30.4148 17.3995 30.7153 17.4091 30.7153 17.4091V18.0744L30.7185 18.0712ZM30.6993 19.1992H32.1635V18.4665L31.7479 18.3926V15.5355C31.3419 15.2173 30.6705 15.0823 30.0951 15.0855C29.6986 15.0855 29.0912 15.2398 28.714 15.3555C28.7492 15.6705 28.8067 15.9244 28.8675 16.2297C29.088 16.1493 29.7242 16.0368 30.0311 16.0368C30.2837 16.0368 30.5618 16.085 30.7312 16.1686V16.7246L30.0823 16.7471C29.1136 16.7792 28.6085 17.2195 28.6085 18.1033C28.6085 18.9164 29.1232 19.286 29.7594 19.2828C30.0983 19.2828 30.3796 19.1157 30.6098 18.9068C30.6194 18.8971 30.6833 18.8939 30.6929 18.8843V19.196L30.6993 19.1992ZM35.1238 19.1992H36.5368V18.399L36.1628 18.3219V16.0915L36.1916 15.1852H34.6858V15.9854L35.1238 16.0625V18.1451C34.9192 18.2672 34.6507 18.3379 34.4205 18.3379C34.04 18.3379 33.9154 18.1901 33.9154 17.8751V16.0915L33.9537 15.1466L32.5055 15.2527V16.0368L32.8764 16.0818V18.0358C32.8764 18.9293 33.3431 19.2732 33.9761 19.2732C34.4045 19.2732 34.7338 19.135 35.0758 18.8489H35.1366L35.1206 19.196L35.1238 19.1992ZM38.1289 16.2682C38.1289 16.0368 38.26 15.9147 38.5637 15.9147C38.7011 15.9147 38.8066 15.9308 38.877 15.9469L38.9441 16.2779H39.8232V15.2559C39.494 15.1627 39.1039 15.108 38.7011 15.108C37.7932 15.108 37.0515 15.5612 37.0515 16.4321C37.0515 17.7177 38.8929 17.5088 38.8929 18.0776C38.8929 18.3315 38.7715 18.4376 38.4262 18.4376C38.2664 18.4376 38.1225 18.4151 37.9978 18.3765L37.9307 18.0294H37.0451V18.9839C37.4128 19.1832 37.8923 19.2764 38.391 19.2764C39.2542 19.2764 39.9735 18.8457 39.9735 17.9683C39.9735 16.5993 38.1321 16.7599 38.1321 16.2682M42.7772 16.5896C42.7772 16.6507 42.7772 16.7375 42.7708 16.7985H41.5943C41.6007 16.1108 41.8405 15.8537 42.2081 15.8537C42.5758 15.8537 42.7772 16.0786 42.7772 16.5896ZM43.7906 17.4959C43.813 17.287 43.8226 16.9946 43.8226 16.8146C43.8226 15.7476 43.3239 15.0888 42.2177 15.0888C41.2267 15.0888 40.4594 15.7604 40.4594 17.2227C40.4594 18.5918 41.166 19.2796 42.4351 19.2796C42.8028 19.2796 43.3271 19.196 43.7714 18.9775L43.5413 18.0326C43.1576 18.2255 42.7868 18.3122 42.4511 18.3122C41.8277 18.3122 41.5911 18.1033 41.5911 17.5216V17.4895H43.797L43.7906 17.4959ZM47.0578 15.153C46.9651 15.1209 46.8373 15.108 46.7446 15.108C46.508 15.108 46.2171 15.1787 45.8494 15.693H45.7887L45.8206 15.1466L44.3021 15.2527V16.0368L44.7817 16.0818V18.3187L44.3149 18.3958V19.196H46.3162V18.3958L45.8206 18.3187V16.4032C46.0636 16.2329 46.2938 16.1879 46.5463 16.1879C46.6902 16.1879 46.8437 16.2104 46.9747 16.2425L47.0578 15.1498V15.153Z" fill="#013A98"/>
<path d="M0.628906 25.0485V22.6638H0.974172V25.0485H0.628906Z" fill="#013A98"/>
<path d="M3.08588 25.0647L2.10443 23.3935C2.07246 23.3389 2.01172 23.2103 1.98935 23.1332H1.96377C1.97336 23.2296 1.98295 23.3357 1.98295 23.4064V25.0518H1.67285V22.6929C1.77515 22.6704 1.9318 22.6608 2.02771 22.6608L2.9644 24.2612C3.00596 24.332 3.05392 24.438 3.07949 24.5184H3.10507C3.09548 24.4444 3.08588 24.3159 3.08588 24.242V22.664H3.39598V25.0358C3.30967 25.0486 3.1722 25.0647 3.08269 25.0647H3.08588Z" fill="#013A98"/>
<path d="M4.89662 25.08C4.67603 25.08 4.34355 25.0671 4.10059 25.0318V22.6921C4.30199 22.6632 4.68242 22.6439 4.89342 22.6439C5.48165 22.6439 5.9452 22.9846 5.9452 23.8105C5.9452 24.6365 5.50403 25.0832 4.89662 25.0832V25.08ZM4.88383 22.946C4.75915 22.946 4.58652 22.9492 4.44585 22.9685V24.7586C4.56094 24.7683 4.75595 24.7811 4.88063 24.7811C5.33459 24.7811 5.57436 24.479 5.57436 23.8523C5.57436 23.1356 5.23229 22.9492 4.88383 22.9492V22.946Z" fill="#013A98"/>
<path d="M6.5083 25.0486V22.6639H6.85357V25.0486H6.5083Z" fill="#013A98"/>
<path d="M8.84255 25.0647L8.60598 24.3416H7.79077L7.56059 25.0647C7.46148 25.0615 7.3464 25.0518 7.25049 25.0261C7.47747 24.2612 7.74281 23.4642 8.03373 22.6639H8.40137C8.66992 23.4385 8.94165 24.2644 9.17822 25.0261C9.07592 25.0518 8.95764 25.0615 8.84255 25.0647ZM8.24153 23.1685C8.22235 23.1139 8.21595 23.0657 8.21276 22.9982H8.18718C8.18718 23.0657 8.18079 23.1139 8.16161 23.1685L7.87708 24.0555H8.51966L8.24153 23.1685Z" fill="#013A98"/>
<path d="M12.3429 25.0582L12.2086 23.3549C12.2054 23.3067 12.2054 23.2007 12.2054 23.1299H12.1799C12.1735 23.2135 12.1543 23.3035 12.1383 23.3549L11.6044 25.0486H11.2847L10.7477 23.3549C10.7285 23.3003 10.7157 23.2103 10.7093 23.1299H10.6837C10.6837 23.1974 10.6805 23.3131 10.6773 23.3549L10.5207 25.0582C10.4312 25.0582 10.3065 25.0518 10.2266 25.0325C10.2841 24.2451 10.3608 23.4642 10.4535 22.6639H10.8404L11.3902 24.3898C11.4126 24.4605 11.4318 24.5633 11.4446 24.6565H11.4702C11.4766 24.5633 11.4925 24.4669 11.5149 24.3865L12.0584 22.6639H12.4548C12.5443 23.461 12.6178 24.2516 12.669 25.0325C12.5667 25.0486 12.4388 25.0582 12.3397 25.0582H12.3429Z" fill="#013A98"/>
<path d="M14.594 25.0647L14.3574 24.3416H13.5422L13.3121 25.0647C13.2129 25.0615 13.0979 25.0518 13.002 25.0261C13.2289 24.2612 13.4943 23.4642 13.7852 22.6639H14.1528C14.4214 23.4385 14.6931 24.2644 14.9297 25.0261C14.8274 25.0518 14.7091 25.0615 14.594 25.0647ZM13.993 23.1685C13.9738 23.1139 13.9674 23.0657 13.9642 22.9982H13.9386C13.9386 23.0657 13.9323 23.1139 13.9131 23.1685L13.6285 24.0555H14.2711L13.993 23.1685Z" fill="#013A98"/>
<path d="M16.5983 25.0642L16.4033 24.6753C16.269 24.4054 16.1284 24.1804 16.0069 24.0679H15.6616V25.0481H15.3228V22.6892C15.5913 22.6571 15.8023 22.641 16.0037 22.641C16.4257 22.641 16.7805 22.821 16.7805 23.3255C16.7805 23.6533 16.5791 23.888 16.2978 23.9651C16.4289 24.0744 16.5727 24.2608 16.7006 24.505L16.966 25.0224C16.8573 25.0514 16.7166 25.0642 16.5983 25.0642ZM15.9909 22.9174C15.8886 22.9174 15.7543 22.927 15.6616 22.9399V23.7948H15.9493C16.2531 23.7948 16.4289 23.6533 16.4289 23.3416C16.4289 23.0299 16.2626 22.9174 15.9877 22.9174H15.9909Z" fill="#013A98"/>
<path d="M18.7931 25.0639L18.0866 23.9037L17.7669 24.283V25.0479H17.4248V22.6632H17.7669V23.878H17.7797C17.9299 23.6563 18.0898 23.441 18.2592 23.2353L18.7483 22.6439C18.841 22.6439 19.0073 22.6568 19.1032 22.6857L18.304 23.6434C18.5917 24.0805 18.8442 24.4983 19.1479 25.0254C19.0584 25.0479 18.8954 25.0607 18.7931 25.0607V25.0639Z" fill="#013A98"/>
<path d="M20.9759 25.0486H19.6172V22.6639H20.9471C20.9471 22.7571 20.9375 22.8728 20.9183 22.9693H19.9625V23.6538H20.685V23.9559H19.9625V24.7433H21.0014C21.0014 24.8397 20.9919 24.949 20.9727 25.0486H20.9759Z" fill="#013A98"/>
<path d="M22.8261 22.9693H22.2315V25.0486H21.8862V22.9693H21.2788V22.6639H22.8549C22.8549 22.7636 22.8453 22.8728 22.8261 22.9693Z" fill="#013A98"/>
<path d="M23.2837 25.0486V22.6639H23.629V25.0486H23.2837Z" fill="#013A98"/>
<path d="M25.7412 25.0647L24.7597 23.3935C24.7277 23.3389 24.667 23.2103 24.6446 23.1332H24.619C24.6286 23.2296 24.6382 23.3357 24.6382 23.4064V25.0518H24.3281V22.6929C24.4304 22.6704 24.5871 22.6608 24.683 22.6608L25.6197 24.2612C25.6612 24.332 25.7092 24.438 25.7348 24.5184H25.7603C25.7507 24.4444 25.7444 24.3159 25.7444 24.242V22.664H26.0545V25.0358C25.9713 25.0486 25.8307 25.0647 25.7412 25.0647Z" fill="#013A98"/>
<path d="M27.6759 25.084C26.9629 25.084 26.6177 24.6598 26.6177 23.8531C26.6177 22.9983 27.0525 22.6287 27.6982 22.6287C27.9124 22.6287 28.1618 22.664 28.328 22.7411C28.3216 22.8343 28.2897 22.9597 28.2609 23.0561C28.1234 22.9854 27.8964 22.9372 27.711 22.9372C27.2603 22.9372 26.9885 23.1332 26.9885 23.866C26.9885 24.5602 27.2411 24.7755 27.6822 24.7755C27.7845 24.7755 27.938 24.7562 28.0371 24.7144V24.1231H27.5991C27.5767 24.0331 27.5672 23.9174 27.5672 23.821H28.376V24.9233C28.2129 25.0069 27.9284 25.0776 27.6727 25.0776L27.6759 25.084Z" fill="#013A98"/>
<path d="M30.4086 24.1772H30.0921V25.0481H29.75V22.6892C30.0089 22.6571 30.1912 22.641 30.4277 22.641C30.8689 22.641 31.2206 22.866 31.2206 23.393C31.2206 23.9201 30.8338 24.1772 30.4086 24.1772ZM30.415 22.9142C30.3318 22.9142 30.2199 22.9238 30.0921 22.9367V23.8944H30.367C30.6771 23.8944 30.8753 23.7433 30.8753 23.3898C30.8753 23.0363 30.6707 22.9174 30.4182 22.9174L30.415 22.9142Z" fill="#013A98"/>
<path d="M33.0373 25.0642L32.8423 24.6753C32.708 24.4054 32.5673 24.1804 32.4459 24.0679H32.1006V25.0481H31.7617V22.6892C32.0303 22.6571 32.2413 22.641 32.4427 22.641C32.8647 22.641 33.2195 22.821 33.2195 23.3255C33.2195 23.6533 33.0181 23.888 32.7368 23.9651C32.8678 24.0744 33.0117 24.2608 33.1396 24.505L33.4049 25.0224C33.2962 25.0514 33.1556 25.0642 33.0373 25.0642ZM32.4299 22.9174C32.3276 22.9174 32.1933 22.927 32.1006 22.9399V23.7948H32.3883C32.692 23.7948 32.8678 23.6533 32.8678 23.3416C32.8678 23.0299 32.7016 22.9174 32.4267 22.9174H32.4299Z" fill="#013A98"/>
<path d="M33.8638 25.0486V22.6639H34.209V25.0486H33.8638Z" fill="#013A98"/>
<path d="M35.7675 25.049H35.4031C35.1313 24.2873 34.8788 23.4838 34.6582 22.6836C34.7605 22.6675 34.9108 22.6547 34.9971 22.6547L35.5437 24.4865C35.5597 24.5476 35.5725 24.6183 35.5821 24.6794H35.6077C35.6141 24.6119 35.6301 24.5444 35.646 24.4865L36.1991 22.6547C36.2886 22.6547 36.4293 22.6643 36.5124 22.6836C36.295 23.4903 36.0393 24.2841 35.7643 25.049H35.7675Z" fill="#013A98"/>
<path d="M38.2097 25.0647L37.9732 24.3416H37.158L36.9278 25.0647C36.8287 25.0615 36.7136 25.0518 36.6177 25.0261C36.8447 24.2612 37.11 23.4642 37.4009 22.6639H37.7686C38.0371 23.4385 38.3088 24.2644 38.5454 25.0261C38.4431 25.0518 38.3248 25.0615 38.2097 25.0647ZM37.6087 23.1685C37.5895 23.1139 37.5831 23.0657 37.5799 22.9982H37.5544C37.5544 23.0657 37.548 23.1139 37.5288 23.1685L37.2443 24.0555H37.8868L37.6087 23.1685Z" fill="#013A98"/>
<path d="M40.1147 22.9693H39.5201V25.0486H39.1748V22.9693H38.5674V22.6639H40.1435C40.1435 22.7636 40.1339 22.8728 40.1147 22.9693Z" fill="#013A98"/>
<path d="M41.9349 25.0486H40.5762V22.6639H41.9061C41.9061 22.7571 41.8965 22.8728 41.8773 22.9693H40.9214V23.6538H41.6439V23.9559H40.9214V24.7433H41.9604C41.9604 24.8397 41.9508 24.949 41.9317 25.0486H41.9349Z" fill="#013A98"/>
<path d="M44.498 25.0486H43.2192V22.6639H43.5645V24.7401H44.5268C44.5268 24.8429 44.5172 24.9458 44.498 25.0486Z" fill="#013A98"/>
<path d="M45.998 22.9693H45.4034V25.0486H45.0581V22.9693H44.4507V22.6639H46.0268C46.0268 22.7636 46.0172 22.8728 45.998 22.9693Z" fill="#013A98"/>
<path d="M47.255 25.08C47.0344 25.08 46.7019 25.0671 46.459 25.0318V22.6921C46.6604 22.6632 47.0408 22.6439 47.2518 22.6439C47.84 22.6439 48.3036 22.9846 48.3036 23.8105C48.3036 24.6365 47.8624 25.0832 47.255 25.0832V25.08ZM47.2422 22.946C47.1175 22.946 46.9449 22.9492 46.8043 22.9685V24.7586C46.9193 24.7683 47.1144 24.7811 47.239 24.7811C47.693 24.7811 47.9328 24.479 47.9328 23.8523C47.9328 23.1356 47.5907 22.9492 47.2422 22.9492V22.946Z" fill="#013A98"/>
</svg>
